<?xml version="1.0" encoding="UTF-8"?>
<svg id="Layer_1" data-name="Layer 1" xmlns="http://www.w3.org/2000/svg" viewBox="0 0 90 87.81">
  <defs>
    <style>
      .cls-1 {
        fill: #00bbd3;
        stroke-width: 0px;
      }
    </style>
  </defs>
  <path class="cls-1" d="M37.58,16.2h4.74v4.74c0,1.43,1.16,2.59,2.59,2.59h.19c1.43,0,2.59-1.16,2.59-2.59v-4.74h4.74c1.43,0,2.59-1.16,2.59-2.59v-.19c0-1.43-1.16-2.59-2.59-2.59h-4.74v-4.74c0-1.43-1.16-2.59-2.59-2.59h-.19c-1.43,0-2.59,1.16-2.59,2.59v4.74h-4.74c-1.43,0-2.59,1.16-2.59,2.59v.19c0,1.43,1.16,2.59,2.59,2.59ZM36.78,13.42c0-.44.35-.79.79-.79h5.64c.5,0,.9-.4.9-.9v-5.64c0-.44.35-.79.79-.79h.19c.44,0,.79.35.79.79v5.64c0,.5.4.9.9.9h5.64c.44,0,.79.35.79.79v.19c0,.44-.35.79-.79.79h-5.64c-.5,0-.9.4-.9.9v5.64c0,.44-.35.79-.79.79h-.19c-.44,0-.79-.35-.79-.79v-5.64c0-.5-.4-.9-.9-.9h-5.64c-.44,0-.79-.35-.79-.79v-.19ZM40.59,71.32h28.69c1.08,0,1.96-.88,1.96-1.96v-19.22c0-1.08-.88-1.96-1.96-1.96h-28.69c-1.08,0-1.96.88-1.96,1.96v19.22c0,1.08.88,1.96,1.95,1.96ZM51.67,58.19h-5.71c-.37,0-.67-.3-.67-.67s.3-.67.67-.67h5.71c.37,0,.67.3.67.67s-.3.67-.67.67ZM44.88,69.52v-8.54c0-.55.44-.99.99-.99h5.89c.55,0,.99.44.99.99v8.54h-7.87ZM58.2,69.05c.23-.18.89-.47,1.89-.47s1.65.28,1.89.47c-.23.18-.89.47-1.89.47s-1.65-.28-1.89-.47ZM58.2,66.32c.23-.18.89-.47,1.89-.47s1.65.28,1.89.47c-.23.18-.89.47-1.89.47s-1.65-.28-1.89-.47ZM40.44,50.14c0-.08.07-.15.15-.15h28.69c.08,0,.15.07.15.15v19.22c0,.08-.07.15-.15.15h-2.48v-7.53c0-.5-.4-.9-.9-.9s-.9.4-.9.9v7.53h-1.23c.05-.15.07-.31.07-.47,0-.53-.26-.99-.7-1.37.44-.37.7-.84.7-1.37,0-1.31-1.58-2.27-3.75-2.27s-3.75.95-3.75,2.27c0,.53.26.99.7,1.37-.44.37-.7.84-.7,1.37,0,.16.02.32.07.47h-1.86v-8.54c0-.8-.34-1.52-.88-2.03.29-.4.46-.9.46-1.44,0-1.36-1.11-2.47-2.47-2.47h-5.71c-1.36,0-2.47,1.11-2.47,2.47,0,.53.17,1.03.46,1.44-.54.51-.88,1.23-.88,2.03v8.54h-2.48c-.08,0-.15-.07-.15-.15v-19.22h0ZM51.78,64.8c0,.5-.4.9-.9.9h-1.17v1.17c0,.5-.4.9-.9.9s-.9-.4-.9-.9v-1.17h-1.17c-.5,0-.9-.4-.9-.9s.4-.9.9-.9h1.17v-1.17c0-.5.4-.9.9-.9s.9.4.9.9v1.17h1.17c.5,0,.9.4.9.9ZM89.1,80.68h-3.57v-4.43c0-.5-.4-.9-.9-.9h-5.85v-32.07c2.04-.61,3.52-2.5,3.52-4.74v-3.51h1.15c.5,0,.9-.4.9-.9v-6.34c0-3.99-3.25-7.24-7.24-7.24h-.5V7.09c0-.5-.4-.9-.9-.9h-17.79V.9c0-.5-.4-.9-.9-.9h-24.04c-.5,0-.9.4-.9.9v5.3H14.28c-.5,0-.9.4-.9.9v13.47h-.5c-3.99,0-7.24,3.25-7.24,7.24v6.34c0,.5.4.9.9.9h1.15v3.51c0,2.23,1.49,4.12,3.52,4.74v32.07h-5.85c-.5,0-.9.4-.9.9v4.43H.9c-.5,0-.9.4-.9.9v5.33c0,.5.4.9.9.9h88.2c.5,0,.9-.4.9-.9v-5.33c0-.5-.4-.9-.9-.9ZM80.5,38.55c0,1.73-1.41,3.15-3.14,3.15s-3.14-1.41-3.14-3.15v-3.51h6.29v3.51h0ZM72.41,38.55c0,1.73-1.41,3.15-3.14,3.15s-3.14-1.41-3.14-3.15v-3.51h6.29v3.51h0ZM64.32,38.55c0,1.73-1.41,3.15-3.14,3.15s-3.15-1.41-3.15-3.15v-3.51h6.29v3.51h0ZM56.23,38.55c0,1.73-1.41,3.15-3.15,3.15s-3.15-1.41-3.15-3.15v-3.51h6.29v3.51h0ZM48.15,38.55c0,1.73-1.41,3.15-3.15,3.15s-3.15-1.41-3.15-3.15v-3.51h6.29v3.51h0ZM40.06,38.55c0,1.73-1.41,3.15-3.15,3.15s-3.15-1.41-3.15-3.15v-3.51h6.29v3.51h0ZM31.97,38.55c0,1.73-1.41,3.15-3.15,3.15s-3.15-1.41-3.15-3.15v-3.51h6.29v3.51h0ZM23.88,38.55c0,1.73-1.41,3.15-3.15,3.15s-3.15-1.41-3.15-3.15v-3.51h6.29v3.51h0ZM74.82,8v12.57h-16.9V8h16.9ZM33.88,1.8h22.24v23.43h-22.24s0-23.43,0-23.43ZM15.18,8h16.9v12.57H15.18V8ZM7.44,27.8c0-3,2.44-5.44,5.44-5.44h19.2v3.77c0,.5.4.9.9.9h24.04c.5,0,.9-.4.9-.9v-3.77h19.2c3,0,5.44,2.44,5.44,5.44v5.44H7.44s0-5.44,0-5.44ZM9.5,38.55v-3.51h6.29v3.51c0,1.73-1.41,3.15-3.15,3.15s-3.15-1.41-3.15-3.15h0ZM13.02,43.48c1.51-.12,2.84-.92,3.66-2.09.9,1.27,2.37,2.11,4.05,2.11s3.15-.83,4.05-2.11c.9,1.27,2.37,2.11,4.04,2.11s3.15-.83,4.04-2.11c.9,1.27,2.37,2.11,4.04,2.11s3.15-.83,4.04-2.11c.9,1.27,2.37,2.11,4.04,2.11s3.15-.83,4.04-2.11c.9,1.27,2.37,2.11,4.04,2.11s3.15-.83,4.04-2.11c.9,1.27,2.37,2.11,4.04,2.11s3.15-.83,4.04-2.11c.9,1.27,2.37,2.11,4.04,2.11s3.15-.83,4.04-2.11c.83,1.17,2.15,1.97,3.67,2.09v31.88h-44.29v-24.12c0-1.68-1.37-3.05-3.05-3.05h-11.12c-1.68,0-3.05,1.37-3.05,3.05v24.12h-2.44v-31.88h0ZM30.89,60.11c-.38-.93-1.3-1.59-2.37-1.59-1.41,0-2.56,1.15-2.56,2.56s1.15,2.56,2.56,2.56c1.07,0,1.98-.66,2.37-1.59v13.31h-13.62v-24.12c0-.69.56-1.25,1.25-1.25h11.12c.69,0,1.25.56,1.25,1.25v8.87ZM29.28,61.08c0,.42-.34.76-.76.76s-.76-.34-.76-.76.34-.76.76-.76.76.34.76.76ZM6.27,77.16h77.45v3.53H6.27v-3.53h0ZM88.2,86.01H1.8v-3.53h86.4v3.53h0Z"/>
</svg>